{"title":"Un-freedom (2015) Banned In India - Web Rip - x264 - [1CD] - Tea","uid":12013565,"size":731731718,"categoryP":"video","categoryS":"movies","magnet":"?xt=urn:btih:387e750213ba831af344a9d1ef2ca122a345b761&amp;dn=Un-freedom+%282015%29+Banned+In+India+-+Web+Rip+-+x264+-+%5B1CD%5D+-+Tea&amp;tr=udp%3A%2F%2Ftracker.openbittorrent.com%3A80&amp;tr=udp%3A%2F%2Fopen.demonii.com%3A1337&amp;tr=udp%3A%2F%2Ftracker.coppersurfer.tk%3A6969&amp;tr=udp%3A%2F%2Fexodus.desync.com%3A6969","seeders":15,"leechers":4,"uploader":"SS132203","files":2,"time":1434267868,"description":"Un-freedom (2015) Banned In India - Web Rip - x264 - [1CD] - Team IcTv Exclusive\n &lt;a href=&quot;\nhttp://imgsparrow.co/image/47&quot; rel=&quot;nofollow&quot; target=&quot;_NEW&quot;&gt;\nhttp://imgsparrow.co/image/47&lt;/a&gt;\n &lt;a href=&quot;\nhttp://imgsparrow.co/image/k2&quot; rel=&quot;nofollow&quot; target=&quot;_NEW&quot;&gt;\nhttp://imgsparrow.co/image/k2&lt;/a&gt;\n\nAll Credit Goes To Intellect Clever &amp; IcTv\n\nMovie Info\nYear : 2015\nCast : Victor Banerjee, Adil Hussain, Bhanu Uday\nVideo: X264\nAudio : AC 3\nGenre : Crime, Drama, Romance\nSubtitles : NONE\nLanguage : HIndi/English :\nRuntime : 1hr 43min xx\nSource : Team IcTv \n\nFormat : Matroska\nFormat version : Version 2\nFile size : 698 MiB\nDuration : 1h 43mn\nOverall bit rate : 944 Kbps\n\nVideo\nID : 1\nFormat : AVC\nFormat/Info : Advanced Video Codec\nFormat profile : &lt;a class=&quot;__cf_email__&quot; href=&quot;/cdn-cgi/l/email-protection&quot; data-cfemail=&quot;2860414f4068641a0619&quot;&gt;[email&amp;#160;protected]&lt;/a&gt;&lt;script data-cfhash='f9e31' type=&quot;text/javascript&quot;&gt;\n/* &lt;![CDATA[ */!function(){try{var t=&quot;currentScript&quot;in document?document.currentScript:function(){for(var t=document.getElementsByTagName(&quot;script&quot;),e=t.length;e--;)if(t[e].getAttribute(&quot;data-cfhash&quot;))return t[e]}();if(t&amp;&amp;t.previousSibling){var e,r,n,i,c=t.previousSibling,a=c.getAttribute(&quot;data-cfemail&quot;);if(a){for(e=&quot;&quot;,r=parseInt(a.substr(0,2),16),n=2;a.length-n;n+=2)i=parseInt(a.substr(n,2),16)^r,e+=String.fromCharCode(i);e=document.createTextNode(e),c.parentNode.replaceChild(e,c)}t.parentNode.removeChild(t);}}catch(u){}}()/* ]]&gt; */&lt;/script&gt;\nFormat settings, CABAC : Yes\nFormat settings, ReFrames : 4 frames\nCodec ID : V_MPEG4/ISO/AVC\nDuration : 1h 43mn\nBit rate : 558 Kbps\nWidth : 640 pixels\nHeight : 272 pixels\nDisplay aspect ratio : 2.35:1\nFrame rate : 23.976 fps\nColor space : YUV\nChroma subsampling : 4:2:0\nBit depth : 8 bits\nScan type : Progressive\nBits/(Pixel*Frame) : 0.134\nStream size : 400 MiB (57%)\n\nAudio\nID : 2\nFormat : AC-3\nFormat/Info : Audio Coding 3\nMode extension : CM (complete main)\nCodec ID : A_AC3\nDuration : 1h 43mn\nBit rate mode : Constant\nBit rate : 384 Kbps\nChannel(s) : 6 channels\nChannel positions : Front: L C R, Side: L R, LFE\nSampling rate : 48.0 KHz\nBit depth : 16 bits\nCompression mode : Lossy\nStream size : 284 MiB (41%)\n\nScreens : - \n &lt;a href=&quot;\nhttp://imgsparrow.co/image/k3&quot; rel=&quot;nofollow&quot; target=&quot;_NEW&quot;&gt;\nhttp://imgsparrow.co/image/k3&lt;/a&gt;  &lt;a href=&quot;\nhttp://imgsparrow.co/image/ki&quot; rel=&quot;nofollow&quot; target=&quot;_NEW&quot;&gt;\nhttp://imgsparrow.co/image/ki&lt;/a&gt;  &lt;a href=&quot;\nhttp://imgsparrow.co/image/kV&quot; rel=&quot;nofollow&quot; target=&quot;_NEW&quot;&gt;\nhttp://imgsparrow.co/image/kV&lt;/a&gt;  &lt;a href=&quot;\nhttp://imgsparrow.co/image/kl&quot; rel=&quot;nofollow&quot; target=&quot;_NEW&quot;&gt;\nhttp://imgsparrow.co/image/kl&lt;/a&gt;  &lt;a href=&quot;\nhttp://imgsparrow.co/image/ks&quot; rel=&quot;nofollow&quot; target=&quot;_NEW&quot;&gt;\nhttp://imgsparrow.co/image/ks&lt;/a&gt;  &lt;a href=&quot;\nhttp://imgsparrow.co/image/kS&quot; rel=&quot;nofollow&quot; target=&quot;_NEW&quot;&gt;\nhttp://imgsparrow.co/image/kS&lt;/a&gt;  &lt;a href=&quot;\nhttp://imgsparrow.co/image/kR&quot; rel=&quot;nofollow&quot; target=&quot;_NEW&quot;&gt;\nhttp://imgsparrow.co/image/kR&lt;/a&gt;  &lt;a href=&quot;\nhttp://imgsparrow.co/image/kv&quot; rel=&quot;nofollow&quot; target=&quot;_NEW&quot;&gt;\nhttp://imgsparrow.co/image/kv&lt;/a&gt;  &lt;a href=&quot;\nhttp://imgsparrow.co/image/kx&quot; rel=&quot;nofollow&quot; target=&quot;_NEW&quot;&gt;\nhttp://imgsparrow.co/image/kx&lt;/a&gt;  &lt;a href=&quot;\nhttp://imgsparrow.co/image/kC&quot; rel=&quot;nofollow&quot; target=&quot;_NEW&quot;&gt;\nhttp://imgsparrow.co/image/kC&lt;/a&gt;\n &lt;a href=&quot;\nhttp://imgsparrow.co/image/N2&quot; rel=&quot;nofollow&quot; target=&quot;_NEW&quot;&gt;\nhttp://imgsparrow.co/image/N2&lt;/a&gt;","torrent":{"xt":"urn:btih:387e750213ba831af344a9d1ef2ca122a345b761","amp;dn":"Un-freedom+%282015%29+Banned+In+India+-+Web+Rip+-+x264+-+%5B1CD%5D+-+Tea","amp;tr":["udp%3A%2F%2Ftracker.openbittorrent.com%3A80","udp%3A%2F%2Fopen.demonii.com%3A1337","udp%3A%2F%2Ftracker.coppersurfer.tk%3A6969","udp%3A%2F%2Fexodus.desync.com%3A6969"],"infoHash":"387e750213ba831af344a9d1ef2ca122a345b761","infoHashBuffer":{"type":"Buffer","data":[56,126,117,2,19,186,131,26,243,68,169,209,239,44,161,34,163,69,183,97]},"announce":[],"urlList":[]}}